<svg width="48" height="48" viewBox="0 0 48 48" xmlns="http://www.w3.org/2000/svg">
  <rect width="48" height="48" fill="#1a1a2e"/>
  <g fill="#2a3a4a">
    <rect x="9" y="13" width="5" height="5" rx="1"/><rect x="16" y="13" width="5" height="5" rx="1"/><rect x="23" y="13" width="5" height="5" rx="1"/><rect x="30" y="13" width="5" height="5" rx="1"/>
    <rect x="9" y="21" width="5" height="5" rx="1"/><rect x="16" y="21" width="5" height="5" rx="1"/><rect x="23" y="21" width="5" height="5" rx="1"/><rect x="30" y="21" width="5" height="5" rx="1"/>
    <rect x="9" y="29" width="5" height="5" rx="1"/><rect x="16" y="29" width="5" height="5" rx="1"/><rect x="23" y="29" width="5" height="5" rx="1"/><rect x="30" y="29" width="5" height="5" rx="1"/>
  </g>
  <g fill="#5bff7a">
    <rect x="9" y="13" width="5" height="5" rx="1"/><rect x="16" y="13" width="5" height="5" rx="1"/>
    <rect x="23" y="21" width="5" height="5" rx="1"/><rect x="30" y="21" width="5" height="5" rx="1"/>
    <rect x="16" y="29" width="5" height="5" rx="1"/>
  </g>
</svg>
