<svg width="48" height="48" viewBox="0 0 48 48" xmlns="http://www.w3.org/2000/svg">
  <!-- Film Grain / Noise texture icon -->
  <rect fill="#2C3E50" width="48" height="48"/>
  
  <!-- Base image (gradient) -->
  <defs>
    <radialGradient id="baseGrad" cx="50%" cy="50%" r="50%">
      <stop offset="0%" style="stop-color:#7F8C8D;stop-opacity:1" />
      <stop offset="100%" style="stop-color:#34495E;stop-opacity:1" />
    </radialGradient>
  </defs>
  
  <circle cx="24" cy="24" r="18" fill="url(#baseGrad)"/>
  
  <!-- Random grain dots (film grain effect) -->
  <circle cx="10" cy="8" r="0.5" fill="#ECF0F1" opacity="0.8"/>
  <circle cx="14" cy="10" r="0.6" fill="#BDC3C7" opacity="0.7"/>
  <circle cx="18" cy="7" r="0.4" fill="#ECF0F1" opacity="0.9"/>
  <circle cx="22" cy="11" r="0.5" fill="#95A5A6" opacity="0.6"/>
  <circle cx="26" cy="9" r="0.7" fill="#ECF0F1" opacity="0.8"/>
  <circle cx="30" cy="12" r="0.4" fill="#BDC3C7" opacity="0.7"/>
  <circle cx="34" cy="8" r="0.6" fill="#ECF0F1" opacity="0.9"/>
  <circle cx="38" cy="10" r="0.5" fill="#95A5A6" opacity="0.6"/>
  
  <circle cx="8" cy="16" r="0.6" fill="#ECF0F1" opacity="0.7"/>
  <circle cx="12" cy="18" r="0.4" fill="#BDC3C7" opacity="0.8"/>
  <circle cx="16" cy="20" r="0.7" fill="#ECF0F1" opacity="0.6"/>
  <circle cx="20" cy="17" r="0.5" fill="#95A5A6" opacity="0.9"/>
  <circle cx="28" cy="19" r="0.6" fill="#ECF0F1" opacity="0.7"/>
  <circle cx="32" cy="21" r="0.4" fill="#BDC3C7" opacity="0.8"/>
  <circle cx="36" cy="18" r="0.7" fill="#ECF0F1" opacity="0.6"/>
  <circle cx="40" cy="20" r="0.5" fill="#95A5A6" opacity="0.9"/>
  
  <circle cx="10" cy="28" r="0.5" fill="#ECF0F1" opacity="0.8"/>
  <circle cx="14" cy="30" r="0.7" fill="#BDC3C7" opacity="0.6"/>
  <circle cx="18" cy="32" r="0.4" fill="#ECF0F1" opacity="0.9"/>
  <circle cx="22" cy="29" r="0.6" fill="#95A5A6" opacity="0.7"/>
  <circle cx="26" cy="31" r="0.5" fill="#ECF0F1" opacity="0.8"/>
  <circle cx="30" cy="28" r="0.7" fill="#BDC3C7" opacity="0.6"/>
  <circle cx="34" cy="32" r="0.4" fill="#ECF0F1" opacity="0.9"/>
  <circle cx="38" cy="30" r="0.6" fill="#95A5A6" opacity="0.7"/>
  
  <circle cx="12" cy="38" r="0.6" fill="#ECF0F1" opacity="0.7"/>
  <circle cx="16" cy="40" r="0.4" fill="#BDC3C7" opacity="0.8"/>
  <circle cx="20" cy="37" r="0.7" fill="#ECF0F1" opacity="0.6"/>
  <circle cx="24" cy="39" r="0.5" fill="#95A5A6" opacity="0.9"/>
  <circle cx="28" cy="41" r="0.6" fill="#ECF0F1" opacity="0.7"/>
  <circle cx="32" cy="38" r="0.4" fill="#BDC3C7" opacity="0.8"/>
  <circle cx="36" cy="40" r="0.7" fill="#ECF0F1" opacity="0.6"/>
</svg>
